<svg width="60" height="60" viewBox="0 0 60 60" fill="none" xmlns="http://www.w3.org/2000/svg">
<g clip-path="url(#clip0_236_1982)">
<path d="M32.7867 0V-3H26.7867V0H32.7867ZM0.0890985 30.7291L-2.03223 32.8504L-2.03222 32.8504L0.0890985 30.7291ZM29.2709 59.9109L27.1496 62.0322L27.1496 62.0322L29.2709 59.9109ZM77.3205 30.2133L60 12.8928L42.6795 30.2133L60 47.5338L77.3205 30.2133ZM26.7867 0V30.2133H32.7867V0H26.7867ZM26.7867 30.2133V59.6973H32.7867V30.2133H26.7867ZM-2.03222 32.8504L27.1496 62.0322L31.3922 57.7896L2.21042 28.6078L-2.03222 32.8504ZM0.302739 33.2133H29.7867V27.2133H0.302739V33.2133ZM29.7867 33.2133H60V27.2133H29.7867V33.2133ZM2.21042 28.6078C3.90997 30.3074 2.70629 33.2133 0.302739 33.2133V27.2133C-2.63915 27.2133 -4.11244 30.7702 -2.03223 32.8504L2.21042 28.6078ZM26.7867 59.6973C26.7867 57.2937 29.6927 56.09 31.3922 57.7896L27.1496 62.0322C29.2298 64.1124 32.7867 62.6392 32.7867 59.6973H26.7867Z" fill="#6BC7BF"/>
<path d="M32.7867 0V-3H26.7867V0H32.7867ZM0.0890985 30.7291L-2.03223 32.8504L-2.03222 32.8504L0.0890985 30.7291ZM29.2709 59.9109L27.1496 62.0322L27.1496 62.0322L29.2709 59.9109ZM77.3205 30.2133L60 12.8928L42.6795 30.2133L60 47.5338L77.3205 30.2133ZM26.7867 0V30.2133H32.7867V0H26.7867ZM26.7867 30.2133V59.6973H32.7867V30.2133H26.7867ZM-2.03222 32.8504L27.1496 62.0322L31.3922 57.7896L2.21042 28.6078L-2.03222 32.8504ZM0.302739 33.2133H29.7867V27.2133H0.302739V33.2133ZM29.7867 33.2133H60V27.2133H29.7867V33.2133ZM2.21042 28.6078C3.90997 30.3074 2.70629 33.2133 0.302739 33.2133V27.2133C-2.63915 27.2133 -4.11244 30.7702 -2.03223 32.8504L2.21042 28.6078ZM26.7867 59.6973C26.7867 57.2937 29.6927 56.09 31.3922 57.7896L27.1496 62.0322C29.2298 64.1124 32.7867 62.6392 32.7867 59.6973H26.7867Z" fill="#7ED7CF"/>
</g>
<defs>
<clipPath id="clip0_236_1982">
<rect width="60" height="60" fill="white"/>
</clipPath>
</defs>
</svg>
